<svg id="visual" viewBox="0 0 2000 500" width="2000" height="500" xmlns="http://www.w3.org/2000/svg" xmlns:xlink="http://www.w3.org/1999/xlink" version="1.1"><rect x="0" y="0" width="2000" height="500" fill="#001220"></rect><path d="M0 357L55.5 352.2C111 347.3 222 337.7 333.2 337.3C444.3 337 555.7 346 666.8 350.2C778 354.3 889 353.7 1000 352.7C1111 351.7 1222 350.3 1333.2 356.3C1444.3 362.3 1555.7 375.7 1666.8 373.5C1778 371.3 1889 353.7 1944.5 344.8L2000 336L2000 501L1944.5 501C1889 501 1778 501 1666.8 501C1555.7 501 1444.3 501 1333.2 501C1222 501 1111 501 1000 501C889 501 778 501 666.8 501C555.7 501 444.3 501 333.2 501C222 501 111 501 55.5 501L0 501Z" fill="#6600ff"></path><path d="M0 396L55.5 398C111 400 222 404 333.2 397.2C444.3 390.3 555.7 372.7 666.8 372.3C778 372 889 389 1000 397C1111 405 1222 404 1333.2 401.8C1444.3 399.7 1555.7 396.3 1666.8 395.3C1778 394.3 1889 395.7 1944.5 396.3L2000 397L2000 501L1944.5 501C1889 501 1778 501 1666.8 501C1555.7 501 1444.3 501 1333.2 501C1222 501 1111 501 1000 501C889 501 778 501 666.8 501C555.7 501 444.3 501 333.2 501C222 501 111 501 55.5 501L0 501Z" fill="#9a56ff"></path><path d="M0 436L55.5 432.3C111 428.7 222 421.3 333.2 416.3C444.3 411.3 555.7 408.7 666.8 406.2C778 403.7 889 401.3 1000 398C1111 394.7 1222 390.3 1333.2 389.3C1444.3 388.3 1555.7 390.7 1666.8 392.3C1778 394 1889 395 1944.5 395.5L2000 396L2000 501L1944.5 501C1889 501 1778 501 1666.8 501C1555.7 501 1444.3 501 1333.2 501C1222 501 1111 501 1000 501C889 501 778 501 666.8 501C555.7 501 444.3 501 333.2 501C222 501 111 501 55.5 501L0 501Z" fill="#bf8cfd"></path><path d="M0 448L55.5 443.7C111 439.3 222 430.7 333.2 429.2C444.3 427.7 555.7 433.3 666.8 439.7C778 446 889 453 1000 450.8C1111 448.7 1222 437.3 1333.2 434.8C1444.3 432.3 1555.7 438.7 1666.8 442.7C1778 446.7 1889 448.3 1944.5 449.2L2000 450L2000 501L1944.5 501C1889 501 1778 501 1666.8 501C1555.7 501 1444.3 501 1333.2 501C1222 501 1111 501 1000 501C889 501 778 501 666.8 501C555.7 501 444.3 501 333.2 501C222 501 111 501 55.5 501L0 501Z" fill="#ddc0fa"></path><path d="M0 455L55.5 455.3C111 455.7 222 456.3 333.2 459.5C444.3 462.7 555.7 468.3 666.8 468.3C778 468.3 889 462.7 1000 461.2C1111 459.7 1222 462.3 1333.2 463C1444.3 463.7 1555.7 462.3 1666.8 465.7C1778 469 1889 477 1944.5 481L2000 485L2000 501L1944.5 501C1889 501 1778 501 1666.8 501C1555.7 501 1444.3 501 1333.2 501C1222 501 1111 501 1000 501C889 501 778 501 666.8 501C555.7 501 444.3 501 333.2 501C222 501 111 501 55.5 501L0 501Z" fill="#f5f5f5"></path></svg>