<svg id="visual" viewBox="0 0 2000 500" width="2000" height="500" xmlns="http://www.w3.org/2000/svg" xmlns:xlink="http://www.w3.org/1999/xlink" version="1.1"><rect x="0" y="0" width="2000" height="500" fill="#14305a"></rect><path d="M0 391L47.7 399.2C95.3 407.3 190.7 423.7 285.8 435.8C381 448 476 456 571.2 451.2C666.3 446.3 761.7 428.7 857 428.3C952.3 428 1047.7 445 1143 454.3C1238.3 463.7 1333.7 465.3 1428.8 453.7C1524 442 1619 417 1714.2 407.5C1809.3 398 1904.7 404 1952.3 407L2000 410L2000 501L1952.3 501C1904.7 501 1809.3 501 1714.2 501C1619 501 1524 501 1428.8 501C1333.7 501 1238.3 501 1143 501C1047.7 501 952.3 501 857 501C761.7 501 666.3 501 571.2 501C476 501 381 501 285.8 501C190.7 501 95.3 501 47.7 501L0 501Z" fill="#f5f5f5" stroke-linecap="round" stroke-linejoin="miter"></path></svg>